<svg xmlns="http://www.w3.org/2000/svg" viewBox="0 0 120 120" fill="none" aria-hidden="true">
  <defs>
    <linearGradient id="g" x1="0%" y1="0%" x2="100%" y2="100%">
      <stop offset="0%" style="stop-color:#38bdf8"/>
      <stop offset="100%" style="stop-color:#6366f1"/>
    </linearGradient>
  </defs>
  <circle cx="60" cy="60" r="56" fill="#0f172a" stroke="url(#g)" stroke-width="3"/>
  <path fill="url(#g)" d="M40 52V42c0-11 9-20 20-20s20 9 20 20v10h8c2.2 0 4 1.8 4 4v32c0 11-9 20-20 20H48c-11 0-20-9-20-20V56c0-2.2 1.8-4 4-4h12zm8 0h24V42c0-6.6-5.4-12-12-12S48 35.4 48 42v10z"/>
  <circle cx="60" cy="74" r="5" fill="#0f172a"/>
</svg>
